<mxfile host="app.diagrams.net" modified="2021-06-05T13:38:52.607Z" agent="5.0 (Windows NT 10.0; Win64; x64) AppleWebKit/537.36 (KHTML, like Gecko) Chrome/88.0.4324.182 Safari/537.36" etag="tnOi666lW5Cqp6CPJmph" version="14.7.6" type="github">
  <diagram id="vfCPOxKS0p95Ce3ue0ws" name="Page-1">
    <mxGraphModel dx="1227" dy="745" grid="1" gridSize="10" guides="1" tooltips="1" connect="1" arrows="1" fold="1" page="1" pageScale="1" pageWidth="3300" pageHeight="4681" math="0" shadow="0">
      <root>
        <mxCell id="0" />
        <mxCell id="1" parent="0" />
        <mxCell id="iArg3-ExP3uGV6L39UkW-3" value="" style="edgeStyle=orthogonalEdgeStyle;rounded=0;orthogonalLoop=1;jettySize=auto;html=1;" edge="1" parent="1" source="iArg3-ExP3uGV6L39UkW-1" target="iArg3-ExP3uGV6L39UkW-2">
          <mxGeometry relative="1" as="geometry" />
        </mxCell>
        <mxCell id="iArg3-ExP3uGV6L39UkW-1" value="FUNCTION validation_date()" style="shape=process;whiteSpace=wrap;html=1;backgroundOutline=1;" vertex="1" parent="1">
          <mxGeometry x="360" y="160" width="240" height="70" as="geometry" />
        </mxCell>
        <mxCell id="iArg3-ExP3uGV6L39UkW-5" value="" style="edgeStyle=orthogonalEdgeStyle;rounded=0;orthogonalLoop=1;jettySize=auto;html=1;" edge="1" parent="1" source="iArg3-ExP3uGV6L39UkW-2" target="iArg3-ExP3uGV6L39UkW-4">
          <mxGeometry relative="1" as="geometry" />
        </mxCell>
        <mxCell id="iArg3-ExP3uGV6L39UkW-2" value="PRINT(&quot;Please enter date in DD-MM-YYYY&quot;)" style="rounded=1;whiteSpace=wrap;html=1;" vertex="1" parent="1">
          <mxGeometry x="365" y="270" width="230" height="40" as="geometry" />
        </mxCell>
        <mxCell id="iArg3-ExP3uGV6L39UkW-7" value="" style="edgeStyle=orthogonalEdgeStyle;rounded=0;orthogonalLoop=1;jettySize=auto;html=1;" edge="1" parent="1" source="iArg3-ExP3uGV6L39UkW-4" target="iArg3-ExP3uGV6L39UkW-6">
          <mxGeometry relative="1" as="geometry" />
        </mxCell>
        <mxCell id="iArg3-ExP3uGV6L39UkW-4" value="PRINT(&quot; &quot;)" style="rounded=1;whiteSpace=wrap;html=1;" vertex="1" parent="1">
          <mxGeometry x="365" y="350" width="230" height="40" as="geometry" />
        </mxCell>
        <mxCell id="iArg3-ExP3uGV6L39UkW-9" value="" style="edgeStyle=orthogonalEdgeStyle;rounded=0;orthogonalLoop=1;jettySize=auto;html=1;" edge="1" parent="1" source="iArg3-ExP3uGV6L39UkW-6" target="iArg3-ExP3uGV6L39UkW-8">
          <mxGeometry relative="1" as="geometry" />
        </mxCell>
        <mxCell id="iArg3-ExP3uGV6L39UkW-6" value="READ temp" style="shape=parallelogram;perimeter=parallelogramPerimeter;whiteSpace=wrap;html=1;fixedSize=1;" vertex="1" parent="1">
          <mxGeometry x="366" y="440" width="229" height="50" as="geometry" />
        </mxCell>
        <mxCell id="iArg3-ExP3uGV6L39UkW-11" value="" style="edgeStyle=orthogonalEdgeStyle;rounded=0;orthogonalLoop=1;jettySize=auto;html=1;" edge="1" parent="1" source="iArg3-ExP3uGV6L39UkW-8" target="iArg3-ExP3uGV6L39UkW-10">
          <mxGeometry relative="1" as="geometry" />
        </mxCell>
        <mxCell id="iArg3-ExP3uGV6L39UkW-8" value="date = datetime.datetime.strptime(temp, &quot;%d-%m-%Y&quot;)" style="rounded=1;whiteSpace=wrap;html=1;" vertex="1" parent="1">
          <mxGeometry x="365" y="550" width="230" height="40" as="geometry" />
        </mxCell>
        <mxCell id="iArg3-ExP3uGV6L39UkW-13" value="" style="edgeStyle=orthogonalEdgeStyle;rounded=0;orthogonalLoop=1;jettySize=auto;html=1;" edge="1" parent="1" source="iArg3-ExP3uGV6L39UkW-10" target="iArg3-ExP3uGV6L39UkW-12">
          <mxGeometry relative="1" as="geometry" />
        </mxCell>
        <mxCell id="iArg3-ExP3uGV6L39UkW-10" value="birth = date.strftime(&quot;%d-%m-%Y&quot;)" style="rounded=1;whiteSpace=wrap;html=1;" vertex="1" parent="1">
          <mxGeometry x="365" y="630" width="230" height="40" as="geometry" />
        </mxCell>
        <mxCell id="iArg3-ExP3uGV6L39UkW-15" value="" style="edgeStyle=orthogonalEdgeStyle;rounded=0;orthogonalLoop=1;jettySize=auto;html=1;" edge="1" parent="1" source="iArg3-ExP3uGV6L39UkW-12" target="iArg3-ExP3uGV6L39UkW-14">
          <mxGeometry relative="1" as="geometry" />
        </mxCell>
        <mxCell id="iArg3-ExP3uGV6L39UkW-23" style="edgeStyle=orthogonalEdgeStyle;rounded=0;orthogonalLoop=1;jettySize=auto;html=1;entryX=0;entryY=0.5;entryDx=0;entryDy=0;" edge="1" parent="1" source="iArg3-ExP3uGV6L39UkW-12" target="iArg3-ExP3uGV6L39UkW-22">
          <mxGeometry relative="1" as="geometry" />
        </mxCell>
        <mxCell id="iArg3-ExP3uGV6L39UkW-12" value="ValueError" style="rhombus;whiteSpace=wrap;html=1;" vertex="1" parent="1">
          <mxGeometry x="425.5" y="720" width="110" height="100" as="geometry" />
        </mxCell>
        <mxCell id="iArg3-ExP3uGV6L39UkW-17" value="" style="edgeStyle=orthogonalEdgeStyle;rounded=0;orthogonalLoop=1;jettySize=auto;html=1;" edge="1" parent="1" source="iArg3-ExP3uGV6L39UkW-14" target="iArg3-ExP3uGV6L39UkW-16">
          <mxGeometry relative="1" as="geometry" />
        </mxCell>
        <mxCell id="iArg3-ExP3uGV6L39UkW-14" value="PRINT(&quot;Error! Incorrect date format&quot;)" style="rounded=1;whiteSpace=wrap;html=1;" vertex="1" parent="1">
          <mxGeometry x="365" y="860" width="230" height="40" as="geometry" />
        </mxCell>
        <mxCell id="iArg3-ExP3uGV6L39UkW-19" style="edgeStyle=orthogonalEdgeStyle;rounded=0;orthogonalLoop=1;jettySize=auto;html=1;" edge="1" parent="1" source="iArg3-ExP3uGV6L39UkW-16">
          <mxGeometry relative="1" as="geometry">
            <mxPoint x="480" y="250" as="targetPoint" />
            <Array as="points">
              <mxPoint x="340" y="970" />
              <mxPoint x="340" y="250" />
              <mxPoint x="480" y="250" />
            </Array>
          </mxGeometry>
        </mxCell>
        <mxCell id="iArg3-ExP3uGV6L39UkW-16" value="PRINT(&quot;&quot;)" style="rounded=1;whiteSpace=wrap;html=1;" vertex="1" parent="1">
          <mxGeometry x="365" y="950" width="230" height="40" as="geometry" />
        </mxCell>
        <mxCell id="iArg3-ExP3uGV6L39UkW-18" value="True" style="text;html=1;align=center;verticalAlign=middle;resizable=0;points=[];autosize=1;strokeColor=none;" vertex="1" parent="1">
          <mxGeometry x="480" y="820" width="40" height="20" as="geometry" />
        </mxCell>
        <mxCell id="iArg3-ExP3uGV6L39UkW-22" value="RETURN birth" style="ellipse;whiteSpace=wrap;html=1;" vertex="1" parent="1">
          <mxGeometry x="640" y="730" width="90" height="80" as="geometry" />
        </mxCell>
      </root>
    </mxGraphModel>
  </diagram>
</mxfile>
